<svg width="19" height="23" viewBox="0 0 19 23" fill="none" xmlns="http://www.w3.org/2000/svg">
    <path d="M11.347 8.50844C11.337 7.28444 10.582 6.33344 9.047 6.34844L0 6.42844L0.00999451 7.55244L8.522 7.47644C9.123 7.47044 9.417 7.91344 9.422 8.52544C9.427 9.12544 9.142 9.58544 8.542 9.59044L0.0289993 9.67744L0.0309982 9.94544L0.0389938 10.7904L0.0690002 14.2364L1.194 14.2264L1.172 11.8034C1.167 11.2174 1.50599 10.7764 2.01099 10.7724L8.60699 10.7134C9.09699 10.7094 9.445 11.1404 9.451 11.7524L9.472 14.1554L11.397 14.1384L11.376 11.7354C11.37 11.0784 11.12 10.5024 10.727 10.1154C11.147 9.71144 11.353 9.15344 11.347 8.50844ZM11.933 3.37044C13.0144 4.04679 13.9647 4.91305 14.738 5.92744L16.168 4.89744C15.252 3.6859 14.1209 2.65336 12.831 1.85144L11.933 3.37044ZM9.599 0.441441L9.17 2.15144C9.96773 2.37338 10.7364 2.68891 11.46 3.09144L12.356 1.57144C11.4865 1.08387 10.5606 0.704391 9.599 0.441441ZM9.06599 0.307441C8.13307 0.0953833 7.17869 -0.00763998 6.222 0.000440907L6.238 1.76344C7.063 1.75644 7.865 1.84644 8.638 2.01744L9.06599 0.307441Z" fill="black"/>
    <path d="M16.475 5.33745L15.043 6.36945C16.2217 8.09506 16.8595 10.1327 16.875 12.2224C16.939 19.4984 12.808 22.7924 12.808 22.7924C14.6082 21.6783 16.0905 20.1187 17.1118 18.2643C18.133 16.4099 18.6587 14.3234 18.638 12.2064C18.6203 9.75197 17.8668 7.35923 16.475 5.33745Z" fill="#E3000F"/>
</svg>
